<?xml version="1.0" standalone="no"?>
<!DOCTYPE svg PUBLIC "-//W3C//DTD SVG 20010904//EN"
 "http://www.w3.org/TR/2001/REC-SVG-20010904/DTD/svg10.dtd">
<svg version="1.0" xmlns="http://www.w3.org/2000/svg"
 width="167.000000pt" height="192.000000pt" viewBox="0 0 167.000000 192.000000"
 preserveAspectRatio="xMidYMid meet">
<metadata>
Created by potrace 1.15, written by Peter Selinger 2001-2017
</metadata>
<g transform="translate(0.000000,192.000000) scale(0.100000,-0.100000)"
fill="#000000" stroke="none">
<path d="M770 1857 c-132 -71 -688 -401 -708 -419 l-22 -21 0 -458 c0 -421 1
-458 18 -477 9 -11 181 -113 381 -226 289 -164 371 -206 400 -206 29 0 109 43
396 209 198 114 367 219 377 232 16 22 18 62 19 483 1 372 -2 461 -13 471 -35
33 -737 427 -768 432 -25 3 -48 -2 -80 -20z m243 -347 c89 -28 209 -110 270
-185 26 -33 46 -64 44 -69 -2 -5 -41 -31 -88 -58 l-84 -48 -20 28 c-34 47 -88
92 -145 120 -49 24 -66 27 -155 27 -90 -1 -106 -3 -158 -30 -63 -31 -134 -101
-165 -161 -28 -56 -45 -149 -38 -207 13 -92 45 -158 110 -223 84 -84 147 -107
272 -102 115 5 181 34 253 114 l51 55 85 -51 85 -51 -17 -31 c-33 -54 -134
-146 -201 -181 -202 -106 -412 -95 -595 29 -307 210 -342 639 -72 893 72 67
181 127 268 147 83 18 213 12 300 -16z"/>
</g>
</svg>
