<svg id="svg" version="1.1" width="400" height="459.8802395209581" xmlns="http://www.w3.org/2000/svg" xmlns:xlink="http://www.w3.org/1999/xlink" style="display: block;"><g id="svgg"><path id="path0" d="M195.600 89.600 C 188.850 90.068,178.675 91.222,175.800 91.846 C 174.260 92.180,171.650 92.715,170.000 93.035 C 168.350 93.355,165.650 94.049,164.000 94.578 C 162.350 95.106,160.370 95.660,159.600 95.809 C 158.830 95.957,157.210 96.494,156.000 97.002 C 154.790 97.510,152.990 98.190,152.000 98.514 C 149.185 99.434,142.180 102.423,139.800 103.720 C 139.360 103.960,137.830 104.770,136.400 105.519 C 131.658 108.005,130.217 108.810,128.400 109.988 C 127.410 110.630,125.700 111.716,124.600 112.401 C 123.500 113.087,121.951 114.132,121.159 114.724 C 120.366 115.316,118.836 116.415,117.759 117.166 C 110.115 122.498,95.684 136.695,90.075 144.400 C 89.355 145.390,87.827 147.460,86.681 149.000 C 85.535 150.540,83.899 152.970,83.047 154.400 C 82.194 155.830,81.065 157.647,80.538 158.437 C 79.371 160.185,78.387 162.013,75.875 167.101 C 74.816 169.246,73.511 171.837,72.975 172.859 C 72.439 173.881,72.000 174.980,72.000 175.299 C 72.000 175.619,71.550 176.726,71.001 177.760 C 70.451 178.794,69.795 180.485,69.542 181.520 C 69.289 182.554,68.741 184.083,68.324 184.917 C 67.908 185.751,67.386 187.412,67.165 188.608 C 66.944 189.804,66.418 191.562,65.997 192.514 C 65.576 193.466,65.030 195.584,64.785 197.222 C 64.539 198.860,63.987 201.359,63.559 202.775 C 63.130 204.191,62.607 207.431,62.395 209.975 C 62.184 212.519,61.740 217.120,61.410 220.200 C 60.649 227.285,60.652 231.563,61.420 238.600 C 61.757 241.680,62.197 246.271,62.399 248.802 C 62.600 251.333,63.128 254.578,63.572 256.014 C 64.015 257.450,64.559 259.900,64.780 261.458 C 65.001 263.016,65.535 265.114,65.966 266.121 C 66.397 267.127,66.934 268.944,67.158 270.158 C 67.383 271.373,67.912 273.049,68.335 273.883 C 68.757 274.717,69.234 276.030,69.395 276.800 C 69.556 277.570,70.208 279.277,70.844 280.594 C 71.480 281.911,72.000 283.234,72.000 283.535 C 72.000 283.836,72.448 284.919,72.996 285.941 C 73.544 286.963,74.254 288.430,74.574 289.200 C 74.895 289.970,75.431 291.050,75.768 291.600 C 76.104 292.150,76.656 293.230,76.994 294.000 C 77.333 294.770,78.329 296.570,79.209 298.000 C 80.088 299.430,80.924 300.870,81.065 301.200 C 82.174 303.782,89.925 314.439,95.065 320.449 C 99.552 325.697,107.798 333.739,112.400 337.356 C 114.490 338.998,116.750 340.792,117.423 341.343 C 119.245 342.835,128.850 349.239,129.815 349.606 C 130.276 349.781,131.295 350.360,132.081 350.893 C 133.313 351.729,138.725 354.459,145.800 357.813 C 146.900 358.334,148.520 358.977,149.400 359.241 C 150.280 359.505,151.360 359.951,151.800 360.231 C 152.240 360.512,153.748 361.035,155.151 361.395 C 156.554 361.754,158.091 362.303,158.566 362.615 C 159.042 362.926,160.774 363.442,162.415 363.760 C 164.057 364.079,166.067 364.622,166.883 364.968 C 167.699 365.314,170.219 365.864,172.483 366.190 C 174.747 366.517,177.500 367.063,178.600 367.403 C 184.552 369.246,217.151 369.240,223.000 367.396 C 224.100 367.049,226.800 366.506,229.000 366.190 C 231.200 365.874,233.900 365.269,235.001 364.847 C 236.101 364.425,237.901 363.946,239.001 363.784 C 240.100 363.622,241.905 363.092,243.012 362.606 C 244.118 362.120,245.695 361.596,246.516 361.442 C 247.336 361.288,249.131 360.631,250.504 359.981 C 251.877 359.332,253.243 358.800,253.541 358.800 C 253.839 358.800,254.919 358.373,255.941 357.851 C 256.963 357.329,259.240 356.232,261.000 355.412 C 262.760 354.593,264.650 353.660,265.200 353.338 C 265.750 353.016,267.100 352.314,268.200 351.778 C 282.909 344.609,304.164 325.439,314.523 310.000 C 321.535 299.549,321.640 299.117,317.686 296.980 C 316.649 296.420,314.810 295.349,313.600 294.600 C 312.390 293.851,310.590 292.771,309.600 292.200 C 308.610 291.629,306.810 290.549,305.600 289.801 C 304.390 289.052,302.686 288.047,301.812 287.567 C 300.939 287.087,299.769 286.386,299.212 286.009 C 298.656 285.632,297.030 284.642,295.600 283.809 C 294.170 282.976,292.460 281.951,291.800 281.532 C 285.943 277.809,277.614 273.200,276.741 273.200 C 275.740 273.200,273.200 275.478,273.200 276.376 C 273.200 276.568,272.615 277.451,271.900 278.339 C 271.185 279.227,269.825 281.036,268.878 282.360 C 265.472 287.122,256.162 296.195,251.554 299.243 C 250.758 299.769,249.048 300.919,247.754 301.797 C 245.100 303.598,243.971 304.227,238.708 306.842 C 233.841 309.260,231.166 310.353,228.000 311.221 C 226.570 311.613,224.727 312.220,223.905 312.570 C 223.082 312.920,221.012 313.396,219.305 313.627 C 217.597 313.859,214.400 314.421,212.200 314.877 C 205.885 316.185,195.104 316.091,188.307 314.667 C 185.505 314.080,182.715 313.592,182.107 313.582 C 181.498 313.573,180.280 313.283,179.400 312.939 C 178.520 312.595,176.602 311.986,175.139 311.585 C 173.675 311.184,171.784 310.502,170.937 310.070 C 170.089 309.637,168.588 309.066,167.601 308.800 C 166.615 308.535,165.356 308.001,164.804 307.614 C 164.252 307.227,163.128 306.693,162.306 306.426 C 161.484 306.160,160.706 305.771,160.577 305.563 C 160.449 305.355,159.434 304.724,158.324 304.161 C 156.278 303.125,151.532 299.964,148.187 297.411 C 143.508 293.840,134.314 284.431,131.760 280.600 C 131.026 279.500,129.615 277.430,128.624 276.000 C 127.633 274.570,126.817 273.237,126.811 273.038 C 126.805 272.839,126.384 272.119,125.875 271.438 C 125.367 270.757,124.706 269.570,124.406 268.800 C 124.106 268.030,123.557 266.950,123.186 266.400 C 122.815 265.850,122.286 264.680,122.011 263.800 C 121.736 262.920,121.273 261.820,120.983 261.356 C 120.692 260.892,120.150 259.452,119.777 258.156 C 119.405 256.860,118.839 255.289,118.521 254.664 C 118.203 254.040,117.671 252.060,117.339 250.264 C 117.008 248.469,116.345 245.740,115.868 244.200 C 114.432 239.569,114.569 217.447,116.067 212.000 C 116.641 209.910,117.237 207.315,117.390 206.233 C 117.544 205.152,118.076 203.347,118.573 202.222 C 119.071 201.097,119.610 199.472,119.772 198.611 C 119.933 197.750,120.399 196.405,120.806 195.622 C 121.214 194.840,122.476 192.310,123.610 190.000 C 128.537 179.969,134.553 171.832,141.817 165.376 C 143.534 163.849,145.231 162.330,145.586 162.000 C 146.911 160.770,149.875 158.547,152.200 157.038 C 153.520 156.182,155.059 155.169,155.620 154.788 C 156.180 154.407,157.530 153.622,158.620 153.044 C 159.709 152.466,160.870 151.829,161.200 151.629 C 162.656 150.747,168.027 148.459,169.253 148.199 C 169.994 148.042,171.140 147.589,171.800 147.192 C 172.460 146.795,174.170 146.248,175.600 145.976 C 177.030 145.704,179.094 145.136,180.186 144.713 C 181.996 144.012,185.847 143.479,196.781 142.413 C 199.100 142.187,202.115 142.189,204.581 142.418 C 214.345 143.325,219.174 143.979,220.632 144.590 C 221.495 144.952,223.419 145.506,224.909 145.820 C 226.399 146.135,228.290 146.736,229.111 147.155 C 229.932 147.574,231.412 148.134,232.399 148.400 C 233.385 148.665,234.644 149.192,235.196 149.570 C 235.748 149.948,237.053 150.573,238.096 150.960 C 239.139 151.347,240.096 151.832,240.223 152.038 C 240.351 152.244,241.060 152.665,241.800 152.974 C 250.481 156.601,264.205 169.272,272.156 181.000 C 273.349 182.760,274.786 184.631,275.350 185.157 L 276.374 186.115 279.287 184.622 C 282.473 182.989,284.822 181.700,288.800 179.402 C 292.384 177.332,294.705 176.029,296.666 174.988 C 297.582 174.502,298.842 173.759,299.466 173.339 C 300.090 172.918,301.230 172.252,302.000 171.859 C 302.770 171.466,304.300 170.624,305.400 169.987 C 306.500 169.350,308.390 168.272,309.600 167.592 C 310.810 166.912,312.880 165.742,314.200 164.992 C 315.520 164.243,317.452 163.171,318.493 162.611 C 321.152 161.182,321.574 158.628,319.573 156.067 C 319.115 155.480,317.988 153.830,317.070 152.399 C 311.347 143.486,300.008 130.746,291.400 123.560 C 284.454 117.761,277.824 112.984,271.845 109.469 C 270.280 108.549,268.460 107.479,267.800 107.091 C 265.809 105.919,255.472 100.918,254.400 100.608 C 253.850 100.449,252.500 99.899,251.400 99.387 C 250.300 98.874,248.590 98.189,247.600 97.865 C 246.610 97.540,244.990 96.998,244.000 96.659 C 239.109 94.986,234.400 93.643,232.600 93.407 C 231.500 93.263,229.448 92.795,228.039 92.367 C 226.631 91.939,222.761 91.327,219.439 91.007 C 216.118 90.687,212.050 90.253,210.400 90.043 C 206.004 89.482,199.929 89.300,195.600 89.600 M6.997 230.200 C 6.997 284.980,7.043 307.331,7.100 279.868 C 7.157 252.405,7.157 207.585,7.100 180.268 C 7.043 152.951,6.997 175.420,6.997 230.200 " stroke="none" fill="#ffffff" fill-rule="evenodd"></path><path id="path1" d="M199.097 7.036 C 198.932 7.201,197.844 7.298,196.680 7.251 C 194.982 7.182,194.266 7.367,193.063 8.183 C 192.239 8.742,191.122 9.200,190.582 9.200 C 190.042 9.200,189.600 9.335,189.599 9.500 C 189.599 9.665,189.065 9.819,188.413 9.842 C 187.761 9.865,186.604 10.360,185.841 10.942 C 185.078 11.524,184.279 12.000,184.067 12.000 C 183.854 12.000,183.077 12.593,182.340 13.317 C 181.603 14.042,180.718 14.575,180.374 14.502 C 180.030 14.429,179.075 14.904,178.253 15.558 C 177.431 16.211,176.233 16.861,175.590 17.002 C 174.947 17.143,173.987 17.776,173.455 18.407 C 172.924 19.039,172.391 19.457,172.271 19.337 C 171.992 19.058,168.800 20.839,168.800 21.274 C 168.800 21.453,168.465 21.600,168.055 21.600 C 167.645 21.600,166.631 22.140,165.800 22.800 C 164.969 23.460,163.961 24.000,163.559 24.000 C 163.157 24.000,162.237 24.516,161.514 25.146 C 160.791 25.776,159.750 26.431,159.200 26.601 C 158.650 26.771,157.691 27.335,157.069 27.855 C 156.447 28.375,155.701 28.800,155.411 28.800 C 155.121 28.800,154.460 29.247,153.942 29.793 C 153.424 30.340,152.430 30.897,151.734 31.032 C 151.038 31.166,150.059 31.711,149.560 32.243 C 149.061 32.774,147.956 33.396,147.105 33.626 C 146.254 33.855,145.175 34.483,144.707 35.021 C 144.239 35.559,143.606 36.000,143.300 36.000 C 142.994 36.000,141.959 36.540,141.000 37.200 C 140.041 37.860,139.055 38.400,138.810 38.400 C 138.564 38.400,137.920 38.844,137.378 39.386 C 136.836 39.928,135.687 40.561,134.825 40.793 C 133.964 41.025,132.834 41.720,132.315 42.336 C 131.796 42.953,131.147 43.382,130.873 43.291 C 130.599 43.200,129.795 43.564,129.087 44.101 C 128.379 44.637,127.139 45.388,126.331 45.769 C 125.523 46.150,124.767 46.708,124.652 47.009 C 124.537 47.310,123.818 47.673,123.055 47.816 C 122.292 47.959,121.259 48.511,120.760 49.043 C 120.261 49.574,119.192 50.187,118.385 50.404 C 117.578 50.621,116.432 51.249,115.838 51.800 C 115.245 52.350,114.575 52.800,114.351 52.800 C 114.127 52.800,113.192 53.315,112.272 53.945 C 111.352 54.575,110.195 55.217,109.700 55.372 C 109.204 55.527,108.625 55.979,108.413 56.376 C 108.200 56.773,107.228 57.299,106.252 57.545 C 105.173 57.817,104.105 58.436,103.525 59.125 C 103.001 59.748,102.365 60.188,102.113 60.104 C 101.522 59.907,99.200 61.102,99.200 61.603 C 99.200 61.813,98.767 62.093,98.238 62.226 C 97.709 62.359,96.870 62.900,96.374 63.428 C 95.878 63.956,94.870 64.501,94.135 64.639 C 93.400 64.777,92.393 65.319,91.899 65.845 C 91.405 66.371,90.320 66.989,89.488 67.219 C 88.656 67.449,88.081 67.807,88.209 68.014 C 88.337 68.221,88.162 68.284,87.821 68.153 C 87.479 68.022,87.200 68.118,87.200 68.366 C 87.200 68.614,86.705 69.030,86.100 69.291 C 85.495 69.552,84.280 70.243,83.400 70.828 C 82.520 71.412,81.395 72.017,80.900 72.172 C 80.404 72.327,79.817 72.794,79.595 73.210 C 79.372 73.626,78.562 74.083,77.794 74.228 C 77.026 74.372,75.756 74.999,74.971 75.623 C 74.187 76.246,72.928 76.960,72.173 77.209 C 71.418 77.458,70.800 77.837,70.800 78.051 C 70.800 78.266,70.215 78.689,69.500 78.993 C 68.785 79.296,67.580 80.007,66.822 80.572 C 66.065 81.137,65.138 81.600,64.764 81.600 C 64.390 81.600,63.660 82.050,63.142 82.600 C 62.624 83.151,61.520 83.789,60.688 84.019 C 59.856 84.249,59.281 84.607,59.409 84.814 C 59.537 85.021,59.362 85.084,59.021 84.953 C 58.679 84.822,58.400 84.909,58.400 85.148 C 58.400 85.386,57.725 85.923,56.900 86.340 C 53.336 88.141,50.725 89.730,50.542 90.207 C 50.433 90.490,49.732 90.836,48.984 90.977 C 48.236 91.117,47.111 91.663,46.485 92.190 C 45.859 92.717,44.607 93.444,43.704 93.805 C 42.801 94.166,41.963 94.718,41.843 95.031 C 41.723 95.344,41.376 95.600,41.073 95.600 C 40.769 95.600,39.783 96.134,38.881 96.787 C 37.980 97.440,36.790 98.088,36.236 98.227 C 35.683 98.366,34.818 98.886,34.315 99.382 C 33.812 99.879,32.723 100.506,31.896 100.775 C 31.069 101.044,30.494 101.428,30.617 101.628 C 30.741 101.827,30.562 101.884,30.221 101.753 C 29.879 101.622,29.600 101.711,29.600 101.952 C 29.600 102.192,29.015 102.657,28.300 102.985 C 25.571 104.236,22.605 106.081,22.710 106.462 C 22.770 106.681,22.623 106.738,22.383 106.589 C 22.137 106.438,21.853 106.675,21.734 107.132 C 21.617 107.579,21.300 107.860,21.030 107.756 C 20.371 107.503,18.391 108.275,17.400 109.170 C 13.364 112.814,9.989 116.575,9.650 117.805 C 9.436 118.579,8.797 119.763,8.231 120.437 C 7.664 121.110,7.197 122.053,7.194 122.531 C 7.184 123.954,7.181 337.701,7.191 338.924 C 7.196 339.560,7.371 339.941,7.595 339.803 C 7.813 339.668,7.897 339.804,7.781 340.104 C 7.666 340.405,7.934 340.978,8.376 341.378 C 8.818 341.778,9.559 342.888,10.022 343.844 C 10.982 345.829,12.887 347.848,14.853 348.966 C 15.594 349.388,16.791 350.243,17.514 350.866 C 18.678 351.870,19.517 352.203,20.500 352.047 C 20.665 352.021,20.755 352.225,20.700 352.500 C 20.645 352.775,20.913 352.975,21.296 352.945 C 21.678 352.915,21.904 353.031,21.798 353.203 C 21.692 353.375,22.324 353.803,23.203 354.154 C 24.081 354.506,24.800 354.994,24.800 355.240 C 24.800 355.485,25.079 355.578,25.421 355.447 C 25.762 355.316,25.941 355.373,25.817 355.572 C 25.694 355.772,26.269 356.156,27.096 356.425 C 27.923 356.694,28.999 357.309,29.487 357.790 C 30.297 358.589,33.380 359.847,34.100 359.673 C 34.265 359.633,34.355 359.797,34.300 360.037 C 34.245 360.278,34.560 360.675,35.000 360.921 C 35.440 361.167,36.299 361.698,36.909 362.102 C 37.518 362.506,38.221 362.711,38.470 362.557 C 38.732 362.395,38.814 362.454,38.664 362.696 C 38.517 362.934,39.094 363.391,40.003 363.754 C 40.881 364.106,41.600 364.560,41.600 364.764 C 41.600 364.967,42.455 365.448,43.500 365.831 C 44.545 366.214,45.580 366.742,45.800 367.003 C 46.328 367.629,48.615 368.800,49.310 368.800 C 49.613 368.800,50.283 369.250,50.800 369.800 C 51.317 370.350,51.954 370.800,52.216 370.800 C 52.478 370.800,53.165 371.172,53.742 371.626 C 54.320 372.080,55.002 372.322,55.258 372.164 C 55.531 371.995,55.616 372.050,55.464 372.296 C 55.317 372.534,55.894 372.991,56.803 373.354 C 57.681 373.706,58.400 374.194,58.400 374.440 C 58.400 374.685,58.679 374.778,59.021 374.647 C 59.362 374.516,59.541 374.573,59.417 374.772 C 59.294 374.972,59.869 375.354,60.696 375.621 C 61.523 375.888,62.506 376.425,62.881 376.816 C 63.255 377.206,64.245 377.744,65.081 378.011 C 65.916 378.278,67.050 378.896,67.600 379.384 C 68.150 379.873,69.185 380.503,69.900 380.785 C 70.615 381.067,71.200 381.431,71.200 381.595 C 71.200 381.759,72.100 382.267,73.200 382.725 C 74.300 383.182,75.200 383.765,75.200 384.021 C 75.200 384.277,75.479 384.378,75.821 384.247 C 76.162 384.116,76.337 384.179,76.209 384.386 C 75.990 384.740,79.015 385.835,79.730 385.661 C 79.911 385.616,79.950 385.757,79.817 385.973 C 79.544 386.415,80.892 387.371,82.400 387.804 C 82.950 387.963,83.768 388.428,84.218 388.839 C 84.949 389.506,86.078 390.159,90.200 392.300 C 90.860 392.643,91.716 393.249,92.102 393.647 C 92.488 394.045,93.494 394.556,94.338 394.783 C 95.182 395.011,96.201 395.559,96.602 396.002 C 97.002 396.445,98.066 397.025,98.965 397.291 C 99.864 397.557,100.935 398.195,101.345 398.708 C 101.755 399.221,102.378 399.586,102.730 399.518 C 103.081 399.450,103.791 399.786,104.307 400.264 C 104.822 400.742,106.044 401.509,107.022 401.968 C 108.000 402.428,108.800 402.966,108.800 403.164 C 108.800 403.363,109.620 403.804,110.623 404.146 C 111.625 404.487,113.004 405.238,113.688 405.813 C 114.413 406.423,115.237 406.779,115.666 406.667 C 116.070 406.561,116.400 406.638,116.400 406.837 C 116.400 407.037,116.599 407.200,116.842 407.200 C 117.086 407.200,117.646 407.659,118.088 408.221 C 118.529 408.782,119.178 409.186,119.530 409.118 C 119.881 409.050,120.591 409.386,121.107 409.864 C 121.622 410.342,122.844 411.109,123.822 411.568 C 124.800 412.028,125.600 412.554,125.600 412.738 C 125.600 412.922,126.340 413.316,127.244 413.614 C 128.148 413.913,129.536 414.673,130.329 415.303 C 131.151 415.956,132.078 416.368,132.486 416.262 C 132.878 416.159,133.200 416.238,133.200 416.437 C 133.200 416.637,133.470 416.800,133.800 416.800 C 134.130 416.800,134.400 416.991,134.400 417.224 C 134.400 417.457,134.608 417.519,134.862 417.362 C 135.147 417.185,135.215 417.252,135.039 417.536 C 134.867 417.816,135.196 418.187,135.877 418.481 C 136.495 418.747,137.752 419.468,138.672 420.083 C 139.592 420.697,140.625 421.200,140.969 421.200 C 141.312 421.200,141.818 421.560,142.093 422.000 C 142.368 422.440,142.714 422.800,142.863 422.800 C 143.012 422.800,144.004 423.189,145.067 423.665 C 146.130 424.141,147.148 424.497,147.330 424.456 C 147.511 424.414,147.551 424.556,147.419 424.770 C 147.134 425.230,148.635 426.122,149.314 425.895 C 149.572 425.809,150.129 426.062,150.552 426.456 C 150.975 426.850,151.461 427.086,151.633 426.980 C 151.804 426.874,152.075 426.998,152.234 427.255 C 152.426 427.566,152.334 427.625,151.962 427.432 C 151.653 427.272,151.749 427.424,152.176 427.770 C 152.604 428.117,153.111 428.400,153.304 428.400 C 153.498 428.400,154.460 428.953,155.442 429.629 C 156.424 430.305,157.425 430.792,157.666 430.711 C 157.907 430.631,158.624 431.086,159.261 431.722 C 159.956 432.417,160.662 432.785,161.029 432.644 C 161.379 432.510,161.537 432.579,161.397 432.805 C 161.263 433.022,161.409 433.200,161.721 433.200 C 162.034 433.200,162.969 433.740,163.800 434.400 C 164.631 435.060,165.605 435.600,165.966 435.600 C 166.327 435.600,167.067 435.912,167.611 436.293 C 168.155 436.674,168.660 436.929,168.733 436.859 C 168.807 436.790,168.987 436.867,169.133 437.031 C 169.280 437.194,169.175 437.199,168.900 437.041 C 168.625 436.882,168.400 436.863,168.400 436.997 C 168.400 437.131,169.050 437.513,169.845 437.845 C 170.640 438.177,171.994 438.914,172.853 439.483 C 173.713 440.052,174.511 440.423,174.626 440.307 C 174.741 440.192,175.372 440.633,176.027 441.288 C 176.746 442.007,177.460 442.386,177.829 442.244 C 178.208 442.099,178.339 442.175,178.173 442.443 C 178.011 442.707,178.183 442.823,178.613 442.738 C 179.014 442.660,179.886 443.165,180.621 443.900 C 181.335 444.615,182.273 445.200,182.705 445.200 C 183.137 445.200,184.183 445.751,185.031 446.424 C 185.921 447.132,186.873 447.570,187.286 447.462 C 187.678 447.359,188.000 447.438,188.000 447.637 C 188.000 447.837,188.242 448.000,188.538 448.000 C 188.834 448.000,189.408 448.366,189.813 448.814 C 190.218 449.262,190.795 449.534,191.096 449.419 C 191.396 449.303,191.540 449.374,191.415 449.575 C 190.733 450.680,207.664 450.674,209.800 449.568 C 211.447 448.716,212.960 447.840,213.200 447.600 C 213.310 447.490,213.940 447.362,214.600 447.315 C 215.350 447.262,216.200 446.786,216.866 446.048 C 217.452 445.397,218.028 444.962,218.147 445.081 C 218.266 445.200,219.227 444.781,220.282 444.150 C 221.337 443.520,222.695 442.786,223.300 442.521 C 223.905 442.256,224.400 441.929,224.400 441.796 C 224.400 441.662,224.175 441.682,223.900 441.841 C 223.610 442.008,223.540 441.976,223.733 441.764 C 223.917 441.564,224.187 441.387,224.333 441.371 C 224.480 441.356,225.140 441.110,225.800 440.826 C 226.460 440.542,227.415 440.149,227.923 439.953 C 228.472 439.741,228.730 439.411,228.561 439.136 C 228.388 438.857,228.452 438.785,228.725 438.954 C 228.972 439.106,229.392 438.882,229.658 438.455 C 229.925 438.029,230.385 437.773,230.681 437.887 C 230.977 438.000,231.980 437.578,232.910 436.949 C 233.839 436.320,235.050 435.597,235.600 435.342 C 236.150 435.087,237.050 434.450,237.600 433.927 C 238.150 433.404,238.917 433.040,239.304 433.118 C 239.710 433.200,240.558 432.694,241.305 431.925 C 242.018 431.190,242.881 430.643,243.221 430.709 C 243.562 430.774,244.461 430.382,245.220 429.838 C 245.979 429.293,247.354 428.492,248.276 428.057 C 249.198 427.622,250.175 426.909,250.447 426.473 C 250.720 426.037,251.180 425.771,251.470 425.882 C 251.760 425.994,252.635 425.526,253.413 424.842 C 254.191 424.159,255.244 423.600,255.752 423.600 C 256.693 423.600,258.166 422.354,257.801 421.868 C 257.690 421.720,257.699 421.669,257.820 421.754 C 258.267 422.066,262.184 420.315,262.706 419.570 C 263.003 419.146,263.518 418.800,263.851 418.800 C 264.183 418.800,265.241 418.260,266.200 417.600 C 267.159 416.940,268.145 416.400,268.390 416.400 C 268.636 416.400,269.280 415.956,269.822 415.414 C 270.364 414.872,271.493 414.244,272.330 414.019 C 273.167 413.793,274.277 413.157,274.796 412.604 C 275.315 412.052,276.041 411.600,276.411 411.600 C 276.780 411.600,277.693 411.158,278.441 410.617 C 279.188 410.077,280.340 409.375,281.000 409.057 C 281.660 408.739,282.654 408.043,283.208 407.509 C 283.762 406.975,284.466 406.622,284.773 406.724 C 285.079 406.826,285.571 406.581,285.865 406.179 C 286.159 405.776,286.400 405.606,286.400 405.800 C 286.400 405.994,286.625 405.877,286.900 405.540 C 287.175 405.204,288.239 404.620,289.265 404.244 C 290.290 403.868,291.223 403.318,291.337 403.021 C 291.451 402.724,292.188 402.268,292.976 402.008 C 293.818 401.730,294.298 401.359,294.142 401.106 C 293.984 400.850,294.065 400.793,294.342 400.964 C 294.598 401.122,295.280 400.880,295.858 400.426 C 296.435 399.972,297.122 399.600,297.384 399.600 C 297.646 399.600,298.258 399.177,298.745 398.659 C 299.231 398.142,300.313 397.513,301.149 397.262 C 301.985 397.012,302.998 396.445,303.398 396.002 C 303.799 395.559,304.792 395.018,305.605 394.799 C 306.417 394.580,307.568 393.951,308.162 393.400 C 308.755 392.850,309.425 392.400,309.649 392.400 C 309.873 392.400,310.808 391.885,311.728 391.255 C 312.648 390.625,313.805 389.983,314.300 389.828 C 314.796 389.673,315.375 389.221,315.587 388.824 C 315.800 388.427,316.757 387.904,317.713 387.664 C 318.670 387.423,319.778 386.867,320.175 386.428 C 320.572 385.989,321.507 385.429,322.252 385.183 C 322.997 384.937,323.506 384.572,323.383 384.372 C 323.259 384.173,323.404 384.103,323.704 384.219 C 324.005 384.334,324.582 384.062,324.987 383.614 C 325.392 383.166,325.952 382.800,326.231 382.800 C 326.510 382.800,327.247 382.376,327.869 381.858 C 328.491 381.340,329.676 380.695,330.503 380.426 C 331.330 380.156,332.168 379.635,332.366 379.268 C 332.565 378.901,333.643 378.278,334.763 377.884 C 335.884 377.490,336.800 376.992,336.800 376.779 C 336.800 376.565,337.745 375.933,338.900 375.375 C 342.082 373.836,343.596 372.943,344.569 372.030 C 345.054 371.573,345.674 371.200,345.946 371.200 C 346.614 371.200,348.905 369.995,349.400 369.383 C 349.620 369.111,350.477 368.674,351.304 368.412 C 352.131 368.150,352.706 367.772,352.583 367.572 C 352.459 367.373,352.638 367.316,352.979 367.447 C 353.321 367.578,353.600 367.505,353.600 367.285 C 353.600 367.064,354.275 366.531,355.100 366.100 C 358.986 364.071,361.278 362.662,361.458 362.193 C 361.567 361.910,362.255 361.566,362.987 361.429 C 363.720 361.291,364.823 360.782,365.440 360.297 C 366.056 359.812,367.379 359.001,368.380 358.495 C 371.195 357.071,373.776 355.562,373.999 355.209 C 374.109 355.034,374.850 354.620,375.643 354.289 C 376.437 353.959,377.427 353.329,377.843 352.891 C 378.260 352.452,379.150 351.976,379.822 351.832 C 381.160 351.546,382.551 350.485,385.721 347.333 C 388.364 344.705,389.027 343.899,388.890 343.478 C 388.830 343.293,388.965 343.255,389.191 343.394 C 389.633 343.667,390.520 341.760,390.283 341.048 C 390.204 340.811,390.487 340.253,390.911 339.809 C 393.178 337.436,392.990 346.354,393.105 235.434 C 393.209 134.091,393.211 133.829,394.025 132.148 C 394.958 130.220,395.630 124.487,394.868 124.958 C 394.577 125.138,394.491 125.029,394.632 124.660 C 394.755 124.340,394.498 123.205,394.062 122.139 C 393.625 121.073,393.172 119.514,393.055 118.676 C 392.576 115.245,385.866 107.600,383.333 107.600 C 383.026 107.600,382.675 107.339,382.552 107.020 C 382.430 106.700,381.490 106.126,380.465 105.744 C 379.439 105.362,378.188 104.651,377.685 104.164 C 377.182 103.677,376.317 103.166,375.764 103.027 C 375.210 102.888,374.020 102.240,373.119 101.587 C 372.217 100.934,371.231 100.400,370.927 100.400 C 370.624 100.400,370.278 100.146,370.159 99.836 C 370.039 99.526,369.550 99.172,369.071 99.050 C 368.592 98.927,367.210 98.185,366.000 97.400 C 364.790 96.615,363.350 95.861,362.800 95.724 C 362.250 95.587,361.410 95.061,360.934 94.554 C 360.458 94.047,359.558 93.508,358.934 93.355 C 358.310 93.203,357.291 92.656,356.669 92.139 C 356.047 91.622,355.115 91.094,354.598 90.964 C 354.081 90.834,353.553 90.455,353.426 90.122 C 353.292 89.774,352.931 89.618,352.576 89.754 C 352.236 89.884,352.059 89.827,352.183 89.628 C 352.306 89.428,351.797 89.063,351.052 88.817 C 350.307 88.571,349.372 88.011,348.975 87.572 C 348.578 87.133,347.461 86.575,346.492 86.331 C 345.524 86.087,344.631 85.626,344.508 85.305 C 344.385 84.984,343.545 84.375,342.642 83.950 C 341.739 83.526,340.010 82.556,338.800 81.795 C 337.590 81.034,335.790 80.023,334.800 79.549 C 333.810 79.074,332.500 78.269,331.888 77.759 C 331.277 77.249,330.147 76.714,329.377 76.569 C 328.608 76.425,327.803 75.980,327.590 75.581 C 327.376 75.181,326.796 74.727,326.300 74.572 C 325.805 74.417,324.680 73.812,323.800 73.228 C 322.920 72.643,321.705 71.952,321.100 71.691 C 320.495 71.430,320.000 71.048,320.000 70.841 C 320.000 70.634,319.102 70.166,318.005 69.802 C 316.907 69.437,315.905 68.970,315.777 68.763 C 315.649 68.556,315.373 68.493,315.162 68.623 C 314.952 68.753,314.830 68.629,314.890 68.348 C 314.953 68.055,314.231 67.572,313.200 67.218 C 312.210 66.878,311.169 66.291,310.886 65.913 C 310.604 65.535,309.614 64.848,308.686 64.387 C 305.242 62.674,303.706 61.782,303.044 61.111 C 302.670 60.731,301.685 60.238,300.856 60.015 C 300.027 59.792,298.942 59.177,298.446 58.649 C 297.950 58.121,296.980 57.576,296.291 57.438 C 295.602 57.300,294.644 56.817,294.162 56.364 C 293.196 55.456,291.678 54.561,288.500 53.025 C 287.345 52.467,286.400 51.850,286.400 51.654 C 286.400 51.207,284.057 50.210,283.744 50.523 C 283.617 50.650,282.894 50.153,282.137 49.418 C 281.381 48.683,280.145 47.966,279.392 47.825 C 278.638 47.683,277.882 47.321,277.711 47.019 C 277.390 46.452,275.098 45.055,272.066 43.578 C 271.113 43.113,270.000 42.400,269.592 41.992 C 269.185 41.585,268.196 41.071,267.393 40.849 C 266.591 40.628,265.496 39.973,264.961 39.395 C 264.425 38.817,263.674 38.407,263.293 38.484 C 262.912 38.561,262.150 38.196,261.600 37.672 C 261.050 37.149,260.060 36.461,259.400 36.143 C 258.740 35.825,257.579 35.117,256.820 34.569 C 256.061 34.021,255.161 33.627,254.820 33.693 C 254.479 33.760,253.806 33.348,253.324 32.778 C 252.842 32.207,251.718 31.522,250.827 31.255 C 249.935 30.988,248.763 30.327,248.221 29.785 C 247.680 29.243,246.957 28.800,246.615 28.800 C 246.273 28.800,245.240 28.254,244.319 27.587 C 243.398 26.920,242.441 26.452,242.193 26.547 C 241.945 26.642,241.533 26.384,241.276 25.973 C 240.724 25.089,238.542 23.886,237.887 24.104 C 237.635 24.188,237.004 23.753,236.485 23.136 C 235.966 22.520,234.842 21.827,233.988 21.597 C 233.133 21.367,232.324 21.000,232.189 20.783 C 232.055 20.565,231.790 20.483,231.600 20.600 C 231.410 20.717,231.125 20.602,230.966 20.345 C 230.785 20.052,230.850 19.984,231.138 20.162 C 231.392 20.319,231.600 20.338,231.600 20.204 C 231.600 20.071,231.105 19.744,230.500 19.479 C 229.895 19.214,228.537 18.480,227.482 17.850 C 226.427 17.219,225.462 16.805,225.337 16.929 C 225.213 17.054,224.676 16.639,224.145 16.007 C 223.613 15.376,222.598 14.737,221.889 14.587 C 221.180 14.438,220.120 13.865,219.533 13.314 C 218.892 12.713,218.267 12.435,217.971 12.618 C 217.632 12.828,217.578 12.759,217.801 12.399 C 218.041 12.010,217.907 11.931,217.282 12.095 C 216.818 12.216,216.385 12.199,216.319 12.058 C 215.946 11.252,213.368 9.567,212.753 9.728 C 212.360 9.831,211.985 9.760,211.919 9.570 C 211.854 9.381,211.227 9.182,210.528 9.130 C 209.828 9.077,209.346 8.888,209.456 8.709 C 209.802 8.150,206.828 7.162,204.869 7.185 C 203.841 7.197,202.190 7.100,201.199 6.971 C 200.209 6.841,199.263 6.871,199.097 7.036 M210.400 90.043 C 212.050 90.253,216.118 90.687,219.439 91.007 C 222.761 91.327,226.631 91.939,228.039 92.367 C 229.448 92.795,231.500 93.263,232.600 93.407 C 234.400 93.643,239.109 94.986,244.000 96.659 C 244.990 96.998,246.610 97.540,247.600 97.865 C 248.590 98.189,250.300 98.874,251.400 99.387 C 252.500 99.899,253.850 100.449,254.400 100.608 C 255.472 100.918,265.809 105.919,267.800 107.091 C 268.460 107.479,270.280 108.549,271.845 109.469 C 277.824 112.984,284.454 117.761,291.400 123.560 C 300.008 130.746,311.347 143.486,317.070 152.399 C 317.988 153.830,319.115 155.480,319.573 156.067 C 321.574 158.628,321.152 161.182,318.493 162.611 C 317.452 163.171,315.520 164.243,314.200 164.992 C 312.880 165.742,310.810 166.912,309.600 167.592 C 308.390 168.272,306.500 169.350,305.400 169.987 C 304.300 170.624,302.770 171.466,302.000 171.859 C 301.230 172.252,300.090 172.918,299.466 173.339 C 298.842 173.759,297.582 174.502,296.666 174.988 C 294.705 176.029,292.384 177.332,288.800 179.402 C 284.822 181.700,282.473 182.989,279.287 184.622 L 276.374 186.115 275.350 185.157 C 274.786 184.631,273.349 182.760,272.156 181.000 C 264.205 169.272,250.481 156.601,241.800 152.974 C 241.060 152.665,240.351 152.244,240.223 152.038 C 240.096 151.832,239.139 151.347,238.096 150.960 C 237.053 150.573,235.748 149.948,235.196 149.570 C 234.644 149.192,233.385 148.665,232.399 148.400 C 231.412 148.134,229.932 147.574,229.111 147.155 C 228.290 146.736,226.399 146.135,224.909 145.820 C 223.419 145.506,221.495 144.952,220.632 144.590 C 219.174 143.979,214.345 143.325,204.581 142.418 C 202.115 142.189,199.100 142.187,196.781 142.413 C 185.847 143.479,181.996 144.012,180.186 144.713 C 179.094 145.136,177.030 145.704,175.600 145.976 C 174.170 146.248,172.460 146.795,171.800 147.192 C 171.140 147.589,169.994 148.042,169.253 148.199 C 168.027 148.459,162.656 150.747,161.200 151.629 C 160.870 151.829,159.709 152.466,158.620 153.044 C 157.530 153.622,156.180 154.407,155.620 154.788 C 155.059 155.169,153.520 156.182,152.200 157.038 C 149.875 158.547,146.911 160.770,145.586 162.000 C 145.231 162.330,143.534 163.849,141.817 165.376 C 134.553 171.832,128.537 179.969,123.610 190.000 C 122.476 192.310,121.214 194.840,120.806 195.622 C 120.399 196.405,119.933 197.750,119.772 198.611 C 119.610 199.472,119.071 201.097,118.573 202.222 C 118.076 203.347,117.544 205.152,117.390 206.233 C 117.237 207.315,116.641 209.910,116.067 212.000 C 114.569 217.447,114.432 239.569,115.868 244.200 C 116.345 245.740,117.008 248.469,117.339 250.264 C 117.671 252.060,118.203 254.040,118.521 254.664 C 118.839 255.289,119.405 256.860,119.777 258.156 C 120.150 259.452,120.692 260.892,120.983 261.356 C 121.273 261.820,121.736 262.920,122.011 263.800 C 122.286 264.680,122.815 265.850,123.186 266.400 C 123.557 266.950,124.106 268.030,124.406 268.800 C 124.706 269.570,125.367 270.757,125.875 271.438 C 126.384 272.119,126.805 272.839,126.811 273.038 C 126.817 273.237,127.633 274.570,128.624 276.000 C 129.615 277.430,131.026 279.500,131.760 280.600 C 134.314 284.431,143.508 293.840,148.187 297.411 C 151.532 299.964,156.278 303.125,158.324 304.161 C 159.434 304.724,160.449 305.355,160.577 305.563 C 160.706 305.771,161.484 306.160,162.306 306.426 C 163.128 306.693,164.252 307.227,164.804 307.614 C 165.356 308.001,166.615 308.535,167.601 308.800 C 168.588 309.066,170.089 309.637,170.937 310.070 C 171.784 310.502,173.675 311.184,175.139 311.585 C 176.602 311.986,178.520 312.595,179.400 312.939 C 180.280 313.283,181.498 313.573,182.107 313.582 C 182.715 313.592,185.505 314.080,188.307 314.667 C 195.104 316.091,205.885 316.185,212.200 314.877 C 214.400 314.421,217.597 313.859,219.305 313.627 C 221.012 313.396,223.082 312.920,223.905 312.570 C 224.727 312.220,226.570 311.613,228.000 311.221 C 231.166 310.353,233.841 309.260,238.708 306.842 C 243.971 304.227,245.100 303.598,247.754 301.797 C 249.048 300.919,250.758 299.769,251.554 299.243 C 256.162 296.195,265.472 287.122,268.878 282.360 C 269.825 281.036,271.185 279.227,271.900 278.339 C 272.615 277.451,273.200 276.568,273.200 276.376 C 273.200 275.478,275.740 273.200,276.741 273.200 C 277.614 273.200,285.943 277.809,291.800 281.532 C 292.460 281.951,294.170 282.976,295.600 283.809 C 297.030 284.642,298.656 285.632,299.212 286.009 C 299.769 286.386,300.939 287.087,301.812 287.567 C 302.686 288.047,304.390 289.052,305.600 289.801 C 306.810 290.549,308.610 291.629,309.600 292.200 C 310.590 292.771,312.390 293.851,313.600 294.600 C 314.810 295.349,316.649 296.420,317.686 296.980 C 321.640 299.117,321.535 299.549,314.523 310.000 C 304.164 325.439,282.909 344.609,268.200 351.778 C 267.100 352.314,265.750 353.016,265.200 353.338 C 264.650 353.660,262.760 354.593,261.000 355.412 C 259.240 356.232,256.963 357.329,255.941 357.851 C 254.919 358.373,253.839 358.800,253.541 358.800 C 253.243 358.800,251.877 359.332,250.504 359.981 C 249.131 360.631,247.336 361.288,246.516 361.442 C 245.695 361.596,244.118 362.120,243.012 362.606 C 241.905 363.092,240.100 363.622,239.001 363.784 C 237.901 363.946,236.101 364.425,235.001 364.847 C 233.900 365.269,231.200 365.874,229.000 366.190 C 226.800 366.506,224.100 367.049,223.000 367.396 C 217.151 369.240,184.552 369.246,178.600 367.403 C 177.500 367.063,174.747 366.517,172.483 366.190 C 170.219 365.864,167.699 365.314,166.883 364.968 C 166.067 364.622,164.057 364.079,162.415 363.760 C 160.774 363.442,159.042 362.926,158.566 362.615 C 158.091 362.303,156.554 361.754,155.151 361.395 C 153.748 361.035,152.240 360.512,151.800 360.231 C 151.360 359.951,150.280 359.505,149.400 359.241 C 148.520 358.977,146.900 358.334,145.800 357.813 C 138.725 354.459,133.313 351.729,132.081 350.893 C 131.295 350.360,130.276 349.781,129.815 349.606 C 128.850 349.239,119.245 342.835,117.423 341.343 C 116.750 340.792,114.490 338.998,112.400 337.356 C 102.825 329.830,92.376 318.253,84.279 306.200 C 82.653 303.780,81.207 301.530,81.065 301.200 C 80.924 300.870,80.088 299.430,79.209 298.000 C 78.329 296.570,77.333 294.770,76.994 294.000 C 76.656 293.230,76.104 292.150,75.768 291.600 C 75.431 291.050,74.895 289.970,74.574 289.200 C 74.254 288.430,73.544 286.963,72.996 285.941 C 72.448 284.919,72.000 283.836,72.000 283.535 C 72.000 283.234,71.480 281.911,70.844 280.594 C 70.208 279.277,69.556 277.570,69.395 276.800 C 69.234 276.030,68.757 274.717,68.335 273.883 C 67.912 273.049,67.383 271.373,67.158 270.158 C 66.934 268.944,66.397 267.127,65.966 266.121 C 65.535 265.114,65.001 263.016,64.780 261.458 C 64.559 259.900,64.015 257.450,63.572 256.014 C 63.128 254.578,62.600 251.333,62.399 248.802 C 62.197 246.271,61.757 241.680,61.420 238.600 C 60.652 231.563,60.649 227.285,61.410 220.200 C 61.740 217.120,62.184 212.519,62.395 209.975 C 62.607 207.431,63.130 204.191,63.559 202.775 C 63.987 201.359,64.539 198.860,64.785 197.222 C 65.030 195.584,65.576 193.466,65.997 192.514 C 66.418 191.562,66.944 189.804,67.165 188.608 C 67.386 187.412,67.908 185.751,68.324 184.917 C 68.741 184.083,69.289 182.554,69.542 181.520 C 69.795 180.485,70.451 178.794,71.001 177.760 C 71.550 176.726,72.000 175.619,72.000 175.299 C 72.000 174.980,72.439 173.881,72.975 172.859 C 73.511 171.837,74.816 169.246,75.875 167.101 C 78.387 162.013,79.371 160.185,80.538 158.437 C 81.065 157.647,82.194 155.830,83.047 154.400 C 83.899 152.970,85.535 150.540,86.681 149.000 C 87.827 147.460,89.355 145.390,90.075 144.400 C 95.684 136.695,110.115 122.498,117.759 117.166 C 118.836 116.415,120.366 115.316,121.159 114.724 C 121.951 114.132,123.500 113.087,124.600 112.401 C 125.700 111.716,127.410 110.630,128.400 109.988 C 130.217 108.810,131.658 108.005,136.400 105.519 C 137.830 104.770,139.360 103.960,139.800 103.720 C 142.180 102.423,149.185 99.434,152.000 98.514 C 152.990 98.190,154.790 97.510,156.000 97.002 C 157.210 96.494,158.830 95.957,159.600 95.809 C 160.370 95.660,162.350 95.106,164.000 94.578 C 165.650 94.049,168.350 93.355,170.000 93.035 C 171.650 92.715,174.260 92.180,175.800 91.846 C 178.675 91.222,188.850 90.068,195.600 89.600 C 199.929 89.300,206.004 89.482,210.400 90.043 " stroke="none" fill="#03599c" fill-rule="evenodd"></path></g></svg>
